<svg width="85" height="22" viewBox="0 0 85 22" fill="none" xmlns="http://www.w3.org/2000/svg">
<g filter="url(#filter0_d_4313_561)">
<path d="M13.702 3.73301C13.702 1.663 12.172 0.493005 9.526 0.493005H4V13.363H9.832C12.496 13.363 14.206 12.085 14.206 9.60101C14.206 7.67501 13.054 6.68501 11.704 6.45101V6.41501C12.766 6.05501 13.702 5.31701 13.702 3.73301ZM6.142 5.821V2.31101H9.58C10.858 2.31101 11.56 2.941 11.56 4.07501C11.56 5.20901 10.984 5.821 9.454 5.821H6.142ZM6.142 7.42301H9.904C11.254 7.42301 12.064 8.16101 12.064 9.47501C12.064 10.681 11.506 11.545 9.67 11.545H6.142V7.42301Z" fill="black"/>
<path d="M19.7018 13.633C16.8218 13.633 15.0758 11.635 15.0758 8.77301C15.0758 5.91101 16.8218 3.913 19.7018 3.913C22.5818 3.913 24.3278 5.91101 24.3278 8.77301C24.3278 11.635 22.5818 13.633 19.7018 13.633ZM19.7018 12.085C21.5018 12.085 22.4378 10.663 22.4378 8.77301C22.4378 6.86501 21.5018 5.46101 19.7018 5.46101C17.9018 5.46101 16.9658 6.86501 16.9658 8.77301C16.9658 10.663 17.9018 12.085 19.7018 12.085Z" fill="black"/>
<path d="M29.774 13.633C26.894 13.633 25.148 11.635 25.148 8.77301C25.148 5.91101 26.894 3.913 29.774 3.913C32.654 3.913 34.4 5.91101 34.4 8.77301C34.4 11.635 32.654 13.633 29.774 13.633ZM29.774 12.085C31.574 12.085 32.51 10.663 32.51 8.77301C32.51 6.86501 31.574 5.46101 29.774 5.46101C27.974 5.46101 27.038 6.86501 27.038 8.77301C27.038 10.663 27.974 12.085 29.774 12.085Z" fill="black"/>
<path d="M35.7063 0.493005V13.363H37.5963V10.033L38.8743 8.82701L41.7723 13.363H44.0403L40.1703 7.58501L43.6623 4.165H41.3403L37.5963 7.85501V0.493005H35.7063Z" fill="black"/>
<path d="M48.5964 7.80101C47.2644 7.49501 46.2384 7.42301 46.2384 6.48701C46.2384 5.83901 46.8504 5.40701 47.9844 5.40701C49.4604 5.40701 49.8204 6.14501 49.9464 6.86501H51.7824C51.6564 5.26301 50.4684 3.913 47.9664 3.913C45.6624 3.913 44.3304 5.119 44.3304 6.63101C44.3304 8.71901 46.3104 9.00701 47.7684 9.34901C49.1184 9.67301 50.2164 9.76301 50.2164 10.915C50.2164 11.491 49.6584 12.139 48.3444 12.139C46.4004 12.139 45.9684 11.293 45.8784 10.303H44.0424C44.1324 12.247 45.4104 13.633 48.3804 13.633C50.6124 13.633 52.1244 12.535 52.1244 10.771C52.1244 8.57501 50.2884 8.19701 48.5964 7.80101Z" fill="black"/>
<path d="M58.3039 3.913C56.7559 3.913 55.8019 4.63301 55.3159 5.35301H55.2799V0.493005H53.3899V13.363H55.2799V7.76501C55.2799 6.39701 56.2699 5.51501 57.6559 5.51501C58.9699 5.51501 59.4919 6.30701 59.4919 7.54901V13.363H61.3999V7.00901C61.3999 4.90301 60.0499 3.913 58.3039 3.913Z" fill="black"/>
<path d="M67.1962 12.085C65.5222 12.085 64.5322 10.807 64.5322 9.25901H71.5882C71.5882 5.98301 70.1302 3.913 67.1602 3.913C64.3882 3.913 62.6422 5.78501 62.6422 8.77301C62.6422 11.653 64.3882 13.633 67.2502 13.633C69.6082 13.633 70.9762 12.301 71.4442 10.555H69.5542C69.3922 11.113 68.7622 12.085 67.1962 12.085ZM67.1602 5.40701C68.6902 5.40701 69.6982 6.43301 69.6982 7.85501H64.5322C64.5322 6.43301 65.6302 5.40701 67.1602 5.40701Z" fill="black"/>
<path d="M72.92 0.493005V13.363H74.828V0.493005H72.92Z" fill="black"/>
<path d="M81.0013 2.04101V0.493005C80.6233 0.421005 80.2093 0.367004 79.7413 0.367004C78.2293 0.367004 77.4013 1.05101 77.4013 2.99501V4.165H76.0873V5.71301H77.4013V13.363H79.3093V5.71301H81.0013V4.165H79.3093V3.15701C79.3093 2.11301 79.7773 1.98701 81.0013 2.04101Z" fill="black"/>
</g>
<defs>
<filter id="filter0_d_4313_561" x="0" y="0.367004" width="85.001" height="21.266" filterUnits="userSpaceOnUse" color-interpolation-filters="sRGB">
<feFlood flood-opacity="0" result="BackgroundImageFix"/>
<feColorMatrix in="SourceAlpha" type="matrix" values="0 0 0 0 0 0 0 0 0 0 0 0 0 0 0 0 0 0 127 0" result="hardAlpha"/>
<feOffset dy="4"/>
<feGaussianBlur stdDeviation="2"/>
<feComposite in2="hardAlpha" operator="out"/>
<feColorMatrix type="matrix" values="0 0 0 0 0 0 0 0 0 0 0 0 0 0 0 0 0 0 0.25 0"/>
<feBlend mode="normal" in2="BackgroundImageFix" result="effect1_dropShadow_4313_561"/>
<feBlend mode="normal" in="SourceGraphic" in2="effect1_dropShadow_4313_561" result="shape"/>
</filter>
</defs>
</svg>
